<mxfile host="app.diagrams.net" modified="2023-07-10T06:14:49.191Z" agent="Mozilla/5.0 (Windows NT 10.0; WOW64) AppleWebKit/537.36 (KHTML, like Gecko) Chrome/108.0.5359.95 Safari/537.36" version="21.5.1" etag="yg5Y5MnJJS6x8-2fVYNg" type="github">
  <diagram name="第 1 页" id="mV_qi1cDvNp9JisKHs0J">
    <mxGraphModel>
      <root>
        <mxCell id="0" />
        <mxCell id="1" parent="0" />
      </root>
    </mxGraphModel>
  </diagram>
</mxfile>
